Coordinates
version=1
nRows=34
nColumns=38
inDegrees=no

Units are S.I. units (second, meters, Newtons, ...)
If the header above contains a line with 'inDegrees', this indicates whether rotational values are in degrees (yes) or radians (no).

endheader
time	pelvis_tilt	pelvis_list	pelvis_rotation	pelvis_tx	pelvis_ty	pelvis_tz	hip_flexion_r	hip_adduction_r	hip_rotation_r	knee_angle_r	ankle_angle_r	subtalar_angle_r	mtp_angle_r	hip_flexion_l	hip_adduction_l	hip_rotation_l	knee_angle_l	ankle_angle_l	subtalar_angle_l	mtp_angle_l	lumbar_extension	lumbar_bending	lumbar_rotation	arm_flex_r	arm_add_r	arm_rot_r	elbow_flex_r	pro_sup_r	wrist_flex_r	wrist_dev_r	arm_flex_l	arm_add_l	arm_rot_l	elbow_flex_l	pro_sup_l	wrist_flex_l	wrist_dev_l
2.05	3.01564	1.15448	-1.30756	0.811773	1.47191	0.954261	-0.250391	0.108272	-0.292119	0.341047	-0.232888	0	0	-0.0486104	-0.179638	0.0235499	1.40314	-0.24257	0	0	-0.429825	0.169902	0.174494	-0.179926	-0.755995	-0.099146	1.62957	0.564314	0	0	0.571325	-0.486754	0.669841	1.11112	0.774633	0	0
2.06	3.02574	1.15227	-1.32262	0.813009	1.48101	0.955681	-0.269767	0.106557	-0.292144	0.330753	-0.233443	0	0	-0.0313411	-0.175572	0.0124944	1.3977	-0.235601	0	0	-0.434442	0.162963	0.17957	-0.179263	-0.757354	-0.0979666	1.63015	0.560586	0	0	0.57286	-0.487344	0.670886	1.11138	0.7705	0	0
2.07	3.03543	1.14924	-1.33751	0.814165	1.49008	0.956988	-0.289898	0.104837	-0.290922	0.320619	-0.233502	0	0	-0.0162058	-0.173272	-0.00333546	1.3874	-0.227342	0	0	-0.439723	0.15639	0.18513	-0.179191	-0.758925	-0.097691	1.63145	0.557539	0	0	0.57393	-0.487827	0.671374	1.11245	0.768921	0	0
2.08	3.04339	1.14556	-1.35115	0.815298	1.49917	0.958139	-0.310439	0.103758	-0.288684	0.31035	-0.233027	0	0	-0.00245797	-0.174686	-0.026289	1.37287	-0.220755	0	0	-0.445451	0.150558	0.191492	-0.179788	-0.760781	-0.0983188	1.63353	0.553918	0	0	0.574713	-0.488395	0.671562	1.11432	0.768098	0	0
2.09	3.04913	1.14102	-1.3631	0.81647	1.50833	0.959121	-0.331725	0.10368	-0.285812	0.299757	-0.23232	0	0	0.00932783	-0.18163	-0.0576416	1.35451	-0.217753	0	0	-0.451744	0.145496	0.198874	-0.181253	-0.762917	-0.0999381	1.63629	0.549341	0	0	0.575908	-0.489434	0.672759	1.11698	0.766516	0	0
2.1	3.05334	1.13638	-1.37417	0.817567	1.51748	0.959943	-0.352416	0.103603	-0.282939	0.290447	-0.23153	0	0	0.0190648	-0.1909	-0.0932546	1.33174	-0.217285	0	0	-0.457878	0.141	0.207125	-0.183131	-0.765074	-0.102376	1.63904	0.545519	0	0	0.577492	-0.490169	0.674743	1.11916	0.764599	0	0
2.11	3.05678	1.13198	-1.38459	0.818534	1.52654	0.960646	-0.372221	0.103233	-0.280322	0.282051	-0.230787	0	0	0.0263974	-0.19847	-0.126609	1.30302	-0.218169	0	0	-0.463784	0.136885	0.215724	-0.18528	-0.767363	-0.10502	1.64183	0.543069	0	0	0.579631	-0.490404	0.677458	1.12054	0.763117	0	0
2.12	3.05955	1.12855	-1.39389	0.819367	1.53554	0.961206	-0.390405	0.102665	-0.278328	0.27466	-0.229696	0	0	0.032465	-0.20267	-0.15512	1.26782	-0.220347	0	0	-0.468684	0.133122	0.223481	-0.186698	-0.770197	-0.106323	1.64431	0.542477	0	0	0.58151	-0.490805	0.680107	1.1217	0.762309	0	0
2.13	3.06117	1.12536	-1.40148	0.820124	1.54452	0.961652	-0.408059	0.102443	-0.276607	0.267711	-0.228033	0	0	0.0363125	-0.205535	-0.180048	1.2264	-0.224293	0	0	-0.473273	0.130025	0.230868	-0.188377	-0.773369	-0.10754	1.64707	0.542675	0	0	0.583188	-0.490909	0.682388	1.12292	0.760328	0	0
2.14	3.06192	1.12284	-1.40697	0.820731	1.55348	0.961909	-0.424907	0.102597	-0.275002	0.260584	-0.226288	0	0	0.0386479	-0.207281	-0.201017	1.18058	-0.2282	0	0	-0.47699	0.127798	0.237276	-0.189948	-0.775525	-0.110162	1.64956	0.540309	0	0	0.584527	-0.490521	0.683819	1.12361	0.758274	0	0
2.15	3.06213	1.12102	-1.41071	0.821158	1.56239	0.961939	-0.440802	0.103077	-0.273591	0.253958	-0.224277	0	0	0.0401888	-0.207649	-0.219236	1.13034	-0.233241	0	0	-0.479832	0.126183	0.242391	-0.191122	-0.777201	-0.112644	1.6517	0.537654	0	0	0.585355	-0.489913	0.68422	1.12409	0.756951	0	0
2.16	3.062	1.12054	-1.4133	0.821412	1.57131	0.961744	-0.454626	0.103438	-0.272839	0.248792	-0.221554	0	0	0.0420161	-0.206426	-0.23665	1.07651	-0.240315	0	0	-0.481469	0.124877	0.246225	-0.191942	-0.778759	-0.114392	1.65384	0.535509	0	0	0.58544	-0.489997	0.684372	1.12537	0.757574	0	0
2.17	3.06145	1.12174	-1.41459	0.821523	1.58027	0.961334	-0.466062	0.103761	-0.272943	0.244796	-0.218386	0	0	0.0437882	-0.203544	-0.252856	1.01938	-0.247399	0	0	-0.481439	0.12393	0.248856	-0.192318	-0.779751	-0.115768	1.65543	0.535377	0	0	0.584513	-0.490259	0.683256	1.12709	0.759951	0	0
2.18	3.0604	1.12406	-1.4144	0.82146	1.58921	0.960738	-0.47594	0.104188	-0.273426	0.241445	-0.214927	0	0	0.044653	-0.198978	-0.267266	0.958994	-0.252874	0	0	-0.480226	0.123588	0.250292	-0.192139	-0.779756	-0.11738	1.6565	0.536723	0	0	0.582757	-0.490251	0.680794	1.12902	0.763356	0	0
2.19	3.05865	1.12769	-1.41225	0.821279	1.59817	0.959937	-0.484341	0.105215	-0.274105	0.238554	-0.210638	0	0	0.0449335	-0.192678	-0.278439	0.895925	-0.255092	0	0	-0.477503	0.123724	0.250452	-0.192086	-0.77912	-0.119504	1.65768	0.537375	0	0	0.580769	-0.490305	0.678031	1.13099	0.767118	0	0
2.2	3.05656	1.13293	-1.40848	0.82097	1.60717	0.958904	-0.490974	0.106794	-0.274583	0.236067	-0.20522	0	0	0.0448802	-0.184073	-0.28508	0.829876	-0.252398	0	0	-0.472954	0.124013	0.24921	-0.191984	-0.778132	-0.121504	1.65847	0.5389	0	0	0.578824	-0.490803	0.67564	1.13297	0.770829	0	0
2.21	3.05406	1.1397	-1.40304	0.820554	1.61624	0.957681	-0.495894	0.109071	-0.274421	0.234053	-0.198717	0	0	0.0442194	-0.1726	-0.284807	0.758427	-0.245817	0	0	-0.466683	0.124675	0.246509	-0.190922	-0.774303	-0.123122	1.65783	0.542077	0	0	0.576769	-0.491606	0.673199	1.13437	0.775205	0	0
2.22	3.0508	1.14852	-1.39561	0.819991	1.62539	0.956247	-0.498552	0.112031	-0.273387	0.23233	-0.19126	0	0	0.0425044	-0.157379	-0.272213	0.677372	-0.238658	0	0	-0.458283	0.12578	0.242488	-0.190039	-0.769348	-0.12504	1.65693	0.54742	0	0	0.574003	-0.492223	0.669826	1.13569	0.778536	0	0
2.23	3.04751	1.15919	-1.38703	0.819337	1.63447	0.954754	-0.498789	0.114983	-0.270477	0.230843	-0.1843	0	0	0.034774	-0.134955	-0.234899	0.580239	-0.230251	0	0	-0.447853	0.126677	0.237031	-0.188063	-0.76384	-0.125911	1.65458	0.554598	0	0	0.571374	-0.492541	0.66663	1.13573	0.781625	0	0
2.24	3.04577	1.1713	-1.37892	0.818614	1.64348	0.953296	-0.496953	0.117448	-0.267139	0.230562	-0.176542	0	0	0.0141211	-0.10348	-0.162703	0.450626	-0.230614	0	0	-0.435529	0.126483	0.229268	-0.183171	-0.757279	-0.123795	1.64942	0.566195	0	0	0.568147	-0.492995	0.662512	1.13477	0.785178	0	0
2.25	3.03676	1.18004	-1.36467	0.817589	1.65302	0.951438	-0.499304	0.12241	-0.264444	0.229549	-0.170485	0	0	0.00720894	-0.0958826	-0.155195	0.369448	-0.235822	0	0	-0.424642	0.130004	0.223518	-0.18095	-0.754728	-0.1218	1.64664	0.573491	0	0	0.565227	-0.493862	0.660964	1.13495	0.787708	0	0
2.26	3.02719	1.1886	-1.34972	0.816411	1.66269	0.949559	-0.501426	0.126964	-0.262263	0.229736	-0.164593	0	0	0.000746634	-0.0894754	-0.152142	0.295313	-0.241696	0	0	-0.413338	0.133814	0.217221	-0.178493	-0.752407	-0.11894	1.64363	0.579207	0	0	0.562029	-0.494389	0.659563	1.13424	0.788898	0	0
2.27	3.01895	1.19594	-1.33627	0.815125	1.67239	0.947788	-0.504485	0.13045	-0.260463	0.230895	-0.158923	0	0	-0.00672181	-0.0828898	-0.151033	0.228753	-0.24815	0	0	-0.403213	0.137164	0.210777	-0.175459	-0.749852	-0.116413	1.64017	0.58249	0	0	0.558917	-0.494909	0.658052	1.13325	0.790253	0	0
2.28	3.01152	1.20207	-1.32397	0.813778	1.68214	0.946102	-0.508403	0.132987	-0.258522	0.233256	-0.153842	0	0	-0.0149508	-0.07669	-0.14875	0.169844	-0.256695	0	0	-0.394284	0.14023	0.204526	-0.172079	-0.747165	-0.113698	1.63633	0.586619	0	0	0.55578	-0.495169	0.656043	1.13206	0.791894	0	0
2.29	3.00225	1.2076	-1.31	0.812463	1.69201	0.944389	-0.512362	0.135834	-0.255602	0.236447	-0.149927	0	0	-0.0224863	-0.0728247	-0.142853	0.120903	-0.266549	0	0	-0.385967	0.143805	0.198828	-0.169877	-0.74438	-0.111921	1.63364	0.591235	0	0	0.552534	-0.495402	0.653589	1.13159	0.792859	0	0
2.3	2.99186	1.21228	-1.29577	0.811235	1.70197	0.942576	-0.515448	0.138861	-0.2533	0.242637	-0.146718	0	0	-0.0280416	-0.0713762	-0.136691	0.088279	-0.276903	0	0	-0.378518	0.14733	0.194198	-0.168525	-0.741968	-0.110817	1.63211	0.595134	0	0	0.550091	-0.496164	0.652013	1.13166	0.794297	0	0
2.31	2.98377	1.21495	-1.28501	0.810112	1.71194	0.940847	-0.518893	0.140698	-0.252908	0.252529	-0.143811	0	0	-0.0312751	-0.0710295	-0.134031	0.0789854	-0.285532	0	0	-0.373679	0.149888	0.191163	-0.167913	-0.739251	-0.111515	1.63165	0.595221	0	0	0.548885	-0.4971	0.651263	1.13229	0.795199	0	0
2.32	2.98146	1.21537	-1.28149	0.809118	1.72191	0.939378	-0.523565	0.139914	-0.253709	0.265659	-0.13979	0	0	-0.0339934	-0.0699014	-0.133072	0.0910186	-0.292757	0	0	-0.372329	0.150225	0.189655	-0.167466	-0.736502	-0.112624	1.63188	0.593155	0	0	0.548388	-0.498339	0.650251	1.13399	0.794711	0	0
2.33	2.98307	1.21555	-1.28344	0.808225	1.73201	0.938138	-0.523599	0.136837	-0.253623	0.2815	-0.135509	0	0	-0.0360951	-0.0673722	-0.130708	0.117159	-0.292744	0	0	-0.371892	0.148456	0.189508	-0.167158	-0.735265	-0.112514	1.63151	0.594736	0	0	0.547839	-0.499536	0.648885	1.13585	0.793002	0	0
2.34	2.98903	1.21551	-1.29042	0.807324	1.74235	0.93708	-0.523599	0.132175	-0.253275	0.298654	-0.133466	0	0	-0.0401151	-0.0626363	-0.126011	0.144585	-0.284678	0	0	-0.371809	0.144636	0.189804	-0.167774	-0.734405	-0.112115	1.63124	0.597878	0	0	0.548155	-0.501685	0.650199	1.13769	0.79426	0	0
2.35	2.99836	1.21497	-1.30166	0.806299	1.75286	0.936157	-0.523599	0.125616	-0.252392	0.319006	-0.132734	0	0	-0.046779	-0.0557342	-0.122099	0.162887	-0.279264	0	0	-0.372585	0.139634	0.191095	-0.169885	-0.73443	-0.112532	1.63219	0.598577	0	0	0.548241	-0.503028	0.650719	1.13921	0.795222	0	0
2.36	3.00842	1.21432	-1.3134	0.805157	1.76341	0.935434	-0.523599	0.118003	-0.24845	0.340689	-0.134106	0	0	-0.0544051	-0.0485409	-0.119406	0.169578	-0.285265	0	0	-0.373812	0.13454	0.192231	-0.172142	-0.733678	-0.112957	1.63327	0.595477	0	0	0.54777	-0.503917	0.649957	1.14092	0.795692	0	0
2.37	3.01787	1.21454	-1.32425	0.804089	1.77391	0.934837	-0.523599	0.11129	-0.241522	0.364697	-0.136902	0	0	-0.0617417	-0.0422835	-0.117668	0.168306	-0.305636	0	0	-0.373987	0.1292	0.192658	-0.17343	-0.729881	-0.113048	1.63261	0.597502	0	0	0.547609	-0.505526	0.650397	1.14253	0.797378	0	0
2.38	3.02467	1.21546	-1.3324	0.802921	1.78436	0.934364	-0.523599	0.104891	-0.231878	0.391202	-0.142932	0	0	-0.0690522	-0.0372268	-0.117226	0.16361	-0.334354	0	0	-0.372688	0.124661	0.193576	-0.175242	-0.728461	-0.112332	1.63158	0.600853	0	0	0.547743	-0.505458	0.650778	1.14213	0.799238	0	0
